<svg xmlns="http://www.w3.org/2000/svg" xmlns:xlink="http://www.w3.org/1999/xlink" version="1.1"
  viewBox="0 0 744.09448819 1052.3622047" xml:space="preserve"
  >
  <path
    style="stroke-width:10.523622047px;"
    d="m 372.04724,195.57779 c -53.77064,0 -97.38088,43.56857 -97.38088,97.33921 0,26.33213 10.47641,50.18702 27.45999,67.71243 -21.49575,17.16995 -38.54154,43.59382 -37.41892,69.46252 1.2339,28.4333 46.16325,39.12949 53.33655,66.6707 13.62881,52.32652 -1.92581,111.93036 -26.66828,160.00966 -5.7525,11.17821 -26.66827,14.09673 -26.66827,26.66828 0,12.57155 27.70518,14.13956 26.66827,26.66828 -3.15363,38.10458 -96.32973,28.55298 -93.33897,66.67069 0.77741,9.90823 25.07628,3.52379 26.66828,13.33414 2.01374,12.40922 -28.68201,14.25906 -26.66828,26.66828 1.59201,9.81035 17.23962,10.19125 26.66828,13.33414 47.1433,15.71442 147.34223,26.66827 147.34223,26.66827 0,0 100.19894,-10.95385 147.34224,-26.66827 9.42866,-3.14289 25.07627,-3.52379 26.66827,-13.33414 2.01374,-12.40922 -28.68201,-14.25906 -26.66827,-26.66828 1.592,-9.81035 25.89087,-3.42591 26.66827,-13.33414 2.99077,-38.11771 -90.18534,-28.56611 -93.33897,-66.67069 -1.0369,-12.52872 26.66828,-14.09673 26.66828,-26.66828 0,-12.57155 -20.91577,-15.49007 -26.66828,-26.66828 -24.74247,-48.0793 -40.29708,-107.68314 -26.66828,-160.00966 7.1733,-27.54121 52.10266,-38.2374 53.33656,-66.6707 1.12261,-25.8687 -15.96484,-52.29257 -37.4606,-69.46252 16.98359,-17.52541 27.46,-41.3803 27.46,-67.71243 0,-53.77064 -43.56857,-97.33921 -97.33922,-97.33921 z"
     />
</svg>