<svg xmlns="http://www.w3.org/2000/svg" xmlns:xlink="http://www.w3.org/1999/xlink" version="1.1"
  viewBox="0 0 202.03075 388" xml:space="preserve"
  >
  <path
    transform="translate(-239.48463,-184.66)"
    style="stroke-width:3.88px;"
    d="m 340.5,185.21875 c 0,0 -8.33846,4.39207 -11.40625,14.375 -2.13516,6.94806 7.25934,2.7015 7.40625,9.96875 0.45244,22.38145 -35.49059,40.79736 -33.875,63.125 1.12731,15.57948 20.0632,24.62199 15.9375,39.6875 -2.70926,9.8932 -29.04675,1.16023 -28.5625,11.40625 0.39836,8.42871 19.36581,0.29766 24.28125,7.15625 20.26689,28.27869 6.75168,71.28571 -4.28125,104.28125 -7.70736,23.04994 -23.08653,44.06436 -41.4375,60 -4.82382,4.18892 -17.65195,2.1955 -17.125,8.5625 0.53422,6.45482 17.15872,-0.60419 18.5625,5.71875 2.92281,13.16498 -30.81988,13.69567 -30,27.15625 0.77913,12.79148 15.97949,16.26903 31.4375,22.125 19.14823,7.25394 45.76329,10.71875 69.0625,10.71875 23.29921,0 49.91427,-3.46481 69.0625,-10.71875 15.45801,-5.85597 30.65837,-9.33352 31.4375,-22.125 0.81988,-13.46058 -32.92281,-13.99127 -30,-27.15625 1.40378,-6.32294 18.02828,0.73607 18.5625,-5.71875 0.52695,-6.367 -12.30118,-4.37358 -17.125,-8.5625 -18.35097,-15.93564 -33.73014,-36.95006 -41.4375,-60 -11.03293,-32.99554 -24.54814,-76.00256 -4.28125,-104.28125 4.91544,-6.85859 23.88289,1.27246 24.28125,-7.15625 0.48425,-10.24602 -25.85324,-1.51305 -28.5625,-11.40625 -4.1257,-15.06551 14.81019,-24.10802 15.9375,-39.6875 0.68732,-9.4989 -5.44398,-18.28093 -12.65625,-26.96875 l -21.5,25.59375 -5.71875,-4.78125 22.3125,-26.625 c -8.36473,-9.77562 -16.52946,-19.6111 -16.3125,-30.34375 0.14691,-7.26725 9.54141,-3.02069 7.40625,-9.96875 -3.06779,-9.98293 -11.40625,-14.375 -11.40625,-14.375 z"
     />
</svg>