<svg xmlns="http://www.w3.org/2000/svg" xmlns:xlink="http://www.w3.org/1999/xlink" version="1.1" x="0px" y="0px"
  viewBox="0 0 161.65853 330" xml:space="preserve"
   >
  <path
    stroke-width="3.2349"
     transform="translate(-239.17574,-511.8674)"
       d="m 279.5,512.375 c -2.52128,0.25605 -4.5,2.41117 -4.5,5 0,1.67837 0.85632,3.12439 2.125,4.03125 -2.88537,4.31692 -6.92606,16.17306 -7.125,20.95593 0,30 10,40 20,60 20,20 20,140 -10,170.01282 -10,19.98718 -43.99185,21.5712 -40,40 20,29.98718 140,29.98718 160,0 3.99185,-18.4288 -30,-20.01282 -40,-40 -30,-30.01282 -30,-150.01282 -10,-170.01282 10,-20 20,-30 20,-60 -0.19894,-4.78287 -4.23963,-16.63901 -7.125,-20.95593 1.26868,-0.90686 2.125,-2.35288 2.125,-4.03125 0,-2.76142 -2.23858,-5 -5,-5 -2.76142,0 -5,2.23858 -5,5 0,1.95601 1.14466,3.61592 2.78125,4.4375 0,0 -1.98145,15.5625 -7.78125,15.5625 -5.7998,0 -7.78125,-15.5625 -7.78125,-15.5625 1.63659,-0.82158 2.78125,-2.48149 2.78125,-4.4375 0,-2.76142 -2.23858,-5 -5,-5 -2.76142,0 -5,2.23858 -5,5 0,1.95601 1.14466,3.61592 2.78125,4.4375 0,0 -1.98145,15.5625 -7.78125,15.5625 -5.7998,0 -7.78125,-15.5625 -7.78125,-15.5625 1.63659,-0.82158 2.78125,-2.48149 2.78125,-4.4375 0,-2.76142 -2.23858,-5 -5,-5 -2.76142,0 -5,2.23858 -5,5 0,1.95601 1.14466,3.61592 2.78125,4.4375 0,0 -1.98145,15.5625 -7.78125,15.5625 -5.7998,0 -7.78125,-15.5625 -7.78125,-15.5625 1.63659,-0.82158 2.78125,-2.48149 2.78125,-4.4375 0,-2.76142 -2.23858,-5 -5,-5 -2.76142,0 -5,2.23858 -5,5 0,1.95601 1.14466,3.61592 2.78125,4.4375 0,0 -1.98145,15.5625 -7.78125,15.5625 -5.7998,0 -7.78125,-15.5625 -7.78125,-15.5625 1.63659,-0.82158 2.78125,-2.48149 2.78125,-4.4375 0,-2.76142 -2.23858,-5 -5,-5 -0.17259,0 -0.33191,-0.0171 -0.5,0 z"
  />
</svg>