<svg xmlns="http://www.w3.org/2000/svg" xmlns:xlink="http://www.w3.org/1999/xlink" version="1.1"
  viewBox="0 0 148.9332 173.16669" xml:space="preserve"
  >
  <path
    style="stroke-width:1.732px;"
    d="m 40.71875,31.84375 0,30 11.40625,0 C 52.480031,73.670785 52.15625,125.5 52.15625,125.5 l -8.66425,2.66469 c 0,0 0.803191,8.05666 -0.664,11.664 -1.275442,3.13589 -4.972043,4.73176 -6.663938,7.664 -1.878457,3.25557 -3.664062,10.664 -3.664062,10.664 0,0 28.235631,5 42.5,5 14.264369,0 42.5,-5 42.5,-5 0,0 -2.00623,-7.45083 -3.9845,-10.7035 -1.80114,-2.96142 -5.67021,-4.4962 -6.9845,-7.7035 -1.48044,-3.61277 -0.484,-11.703 -0.484,-11.703 l -9.4845,-2.70294 c 0,0 -0.49629,-52.972929 0.0625,-63.5 l 11.59375,0 0,-30 -7.5,0 0,7.5 -7.5,0 0,-7.5 -7.5,0 0,7.5 -7.5,0 0,-7.5 -7.5,0 0,7.5 -7.5,0 0,-7.5 -7.5,0 0,7.5 -7.5,0 0,-7.5 z"
     />
</svg>