<?xml version="1.0" encoding="UTF-8" standalone="no"?>
<!-- Created with Inkscape (http://www.inkscape.org/) -->

<svg
   xmlns:dc="http://purl.org/dc/elements/1.1/"
   xmlns:cc="http://creativecommons.org/ns#"
   xmlns:rdf="http://www.w3.org/1999/02/22-rdf-syntax-ns#"
   xmlns:svg="http://www.w3.org/2000/svg"
   xmlns="http://www.w3.org/2000/svg"
   xmlns:sodipodi="http://sodipodi.sourceforge.net/DTD/sodipodi-0.dtd"
   xmlns:inkscape="http://www.inkscape.org/namespaces/inkscape"
   width="202.03075"
   height="385.34"
   id="svg2"
   version="1.1"
   inkscape:version="0.48.4 r9939"
   sodipodi:docname="bishop.svg">
  <defs
     id="defs4" />
  <sodipodi:namedview
     id="base"
     pagecolor="#ffffff"
     bordercolor="#666666"
     borderopacity="1.0"
     inkscape:pageopacity="0.0"
     inkscape:pageshadow="2"
     inkscape:zoom="1.4"
     inkscape:cx="169.63811"
     inkscape:cy="200.99989"
     inkscape:document-units="px"
     inkscape:current-layer="layer1"
     showgrid="false"
     inkscape:window-width="1055"
     inkscape:window-height="851"
     inkscape:window-x="104"
     inkscape:window-y="26"
     inkscape:window-maximized="0"
     fit-margin-top="0"
     fit-margin-left="0"
     fit-margin-right="0"
     fit-margin-bottom="0" />
  <metadata
     id="metadata7">
    <rdf:RDF>
      <cc:Work
         rdf:about="">
        <dc:format>image/svg+xml</dc:format>
        <dc:type
           rdf:resource="http://purl.org/dc/dcmitype/StillImage" />
        <dc:title></dc:title>
      </cc:Work>
    </rdf:RDF>
  </metadata>
  <g
     inkscape:label="Layer 1"
     inkscape:groupmode="layer"
     id="layer1"
     transform="translate(-239.48463,-184.66)">
    <path
       style="fill:none;stroke:#000000;stroke-width:1px;stroke-linecap:butt;stroke-linejoin:miter;stroke-opacity:1"
       d="m 1838.0821,216.6479 c 0.4525,22.38145 -34.4727,36.24379 -32.8571,58.57143 1.1273,15.57948 32.6971,22.07734 28.5714,37.14285 -2.7092,9.8932 -29.0556,1.18255 -28.5714,11.42857 0.3984,8.42871 19.3703,0.28427 24.2857,7.14286 20.2669,28.27869 6.7472,71.29018 -4.2857,104.28572 -7.7074,23.04994 -23.0776,44.06436 -41.4286,60 -4.8238,4.18892 -17.6698,2.20442 -17.1428,8.57142 0.5342,6.45482 17.1676,-0.60865 18.5714,5.71429 2.9228,13.16498 -30.8199,13.68228 -30,27.14286 0.7791,12.79148 15.9706,16.28688 31.4286,22.14285 19.1482,7.25394 68.5714,10.71429 68.5714,10.71429 l 0,-384.28571 c 0,0 -25.5036,2.87421 -28.5714,12.85714 -2.1352,6.94806 11.2816,11.30418 11.4285,18.57143 z"
       id="path2985-1"
       inkscape:connector-curvature="0"
       sodipodi:nodetypes="sssssssssssccss" />
    <path
       style="fill:none;stroke:#000000;stroke-width:1px;stroke-linecap:butt;stroke-linejoin:miter;stroke-opacity:1"
       d="m 340.5,185.21875 c 0,0 -8.33846,4.39207 -11.40625,14.375 -2.13516,6.94806 7.25934,2.7015 7.40625,9.96875 0.45244,22.38145 -35.49059,40.79736 -33.875,63.125 1.12731,15.57948 20.0632,24.62199 15.9375,39.6875 -2.70926,9.8932 -29.04675,1.16023 -28.5625,11.40625 0.39836,8.42871 19.36581,0.29766 24.28125,7.15625 20.26689,28.27869 6.75168,71.28571 -4.28125,104.28125 -7.70736,23.04994 -23.08653,44.06436 -41.4375,60 -4.82382,4.18892 -17.65195,2.1955 -17.125,8.5625 0.53422,6.45482 17.15872,-0.60419 18.5625,5.71875 2.92281,13.16498 -30.81988,13.69567 -30,27.15625 0.77913,12.79148 15.97949,16.26903 31.4375,22.125 19.14823,7.25394 45.76329,10.71875 69.0625,10.71875 23.29921,0 49.91427,-3.46481 69.0625,-10.71875 15.45801,-5.85597 30.65837,-9.33352 31.4375,-22.125 0.81988,-13.46058 -32.92281,-13.99127 -30,-27.15625 1.40378,-6.32294 18.02828,0.73607 18.5625,-5.71875 0.52695,-6.367 -12.30118,-4.37358 -17.125,-8.5625 -18.35097,-15.93564 -33.73014,-36.95006 -41.4375,-60 -11.03293,-32.99554 -24.54814,-76.00256 -4.28125,-104.28125 4.91544,-6.85859 23.88289,1.27246 24.28125,-7.15625 0.48425,-10.24602 -25.85324,-1.51305 -28.5625,-11.40625 -4.1257,-15.06551 14.81019,-24.10802 15.9375,-39.6875 0.68732,-9.4989 -5.44398,-18.28093 -12.65625,-26.96875 l -21.5,25.59375 -5.71875,-4.78125 22.3125,-26.625 c -8.36473,-9.77562 -16.52946,-19.6111 -16.3125,-30.34375 0.14691,-7.26725 9.54141,-3.02069 7.40625,-9.96875 -3.06779,-9.98293 -11.40625,-14.375 -11.40625,-14.375 z"
       id="path2985-7"
       inkscape:connector-curvature="0" />
  </g>
</svg>
