<?xml version="1.0" encoding="UTF-8" standalone="no"?>
<!-- Created with Inkscape (http://www.inkscape.org/) -->

<svg
   xmlns:dc="http://purl.org/dc/elements/1.1/"
   xmlns:cc="http://creativecommons.org/ns#"
   xmlns:rdf="http://www.w3.org/1999/02/22-rdf-syntax-ns#"
   xmlns:svg="http://www.w3.org/2000/svg"
   xmlns="http://www.w3.org/2000/svg"
   xmlns:sodipodi="http://sodipodi.sourceforge.net/DTD/sodipodi-0.dtd"
   xmlns:inkscape="http://www.inkscape.org/namespaces/inkscape"
   width="422.92255"
   height="895"
   id="svg3001"
   version="1.1"
   inkscape:version="0.48.4 r9939"
   sodipodi:docname="king_rounding.svg">
  <defs
     id="defs3003" />
  <sodipodi:namedview
     id="base"
     pagecolor="#ffffff"
     bordercolor="#666666"
     borderopacity="1.0"
     inkscape:pageopacity="0.0"
     inkscape:pageshadow="2"
     inkscape:zoom="1.4"
     inkscape:cx="258.04007"
     inkscape:cy="207.15386"
     inkscape:document-units="px"
     inkscape:current-layer="layer1"
     showgrid="true"
     inkscape:window-width="1369"
     inkscape:window-height="1245"
     inkscape:window-x="1045"
     inkscape:window-y="453"
     inkscape:window-maximized="0"
     fit-margin-top="0"
     fit-margin-left="0"
     fit-margin-right="0"
     fit-margin-bottom="0" />
  <metadata
     id="metadata3006">
    <rdf:RDF>
      <cc:Work
         rdf:about="">
        <dc:format>image/svg+xml</dc:format>
        <dc:type
           rdf:resource="http://purl.org/dc/dcmitype/StillImage" />
        <dc:title></dc:title>
      </cc:Work>
    </rdf:RDF>
  </metadata>
  <g
     inkscape:label="Layer 1"
     inkscape:groupmode="layer"
     id="layer1"
     transform="translate(-140.21214,-110.9375)">
    <path
       style="fill:none;stroke:#000000;stroke-width:10;stroke-linecap:butt;stroke-linejoin:miter;stroke-miterlimit:4;stroke-opacity:1;stroke-dasharray:none"
       d="m 156.42857,980.93363 c -36.07569,-3.69605 24.33077,-48.75609 45,-65.00002 -13.83748,-10.91045 -36.30677,-8.87317 -40,-35 -1.6487,-9.16891 1.46049,-18.93256 15,-30 71.50123,-98.72126 75.16234,-213.71766 85,-335 -20.03364,-9.97898 -47.22719,-15.483 -60,-30 -2.8113,-11.02696 1.36038,-23.05148 5,-35 4.40457,-16.02184 33.33333,-30 50,-45 3.60732,-5.19024 2.00685,-17.3242 0,-30 -4.98028,-43.23993 -13.92774,-85.54641 -35,-125 24.93411,-28.4157 76.33169,-23.75205 115,-35 l 0,-50 -35,0 0,-30 35,0 0,-20 15.25,-5e-5 15.25,-6e-5 0,20 35,0 0,30 -35,0 0,50 c 38.66831,11.24795 90.06589,6.5843 115,35 -21.07226,39.45359 -30.01972,81.76007 -35,125 -2.00685,12.6758 -3.60732,24.80976 0,30 16.66667,15 45.59543,28.97816 50,45 3.63962,11.94852 7.8113,23.97304 5,35 -12.77281,14.517 -39.96636,20.02102 -60,30 9.83766,121.28234 13.49877,236.27874 85,335 13.53951,11.06744 16.6487,20.83109 15,30 -3.69323,26.12683 -26.16252,24.08955 -40,35 20.66923,16.24393 81.0758,61.30407 45,65.00013 0,0 -129.82598,20.00387 -195.25,20.00387 -65.42402,0 -195.25,-20.00387 -195.25,-20.00387 z"
       id="path3009"
       inkscape:connector-curvature="0"
       sodipodi:nodetypes="scccccccccccccccccccccccccccccccsss" />
  </g>
</svg>
