<?xml version="1.0" encoding="UTF-8" standalone="no"?>
<!-- Created with Inkscape (http://www.inkscape.org/) -->

<svg
   xmlns:dc="http://purl.org/dc/elements/1.1/"
   xmlns:cc="http://creativecommons.org/ns#"
   xmlns:rdf="http://www.w3.org/1999/02/22-rdf-syntax-ns#"
   xmlns:svg="http://www.w3.org/2000/svg"
   xmlns="http://www.w3.org/2000/svg"
   xmlns:sodipodi="http://sodipodi.sourceforge.net/DTD/sodipodi-0.dtd"
   xmlns:inkscape="http://www.inkscape.org/namespaces/inkscape"
   width="744.09448819"
   height="1052.3622047"
   id="svg2"
   version="1.1"
   inkscape:version="0.48.4 r9939"
   sodipodi:docname="pawn.svg">
  <defs
     id="defs4" />
  <sodipodi:namedview
     id="base"
     pagecolor="#ffffff"
     bordercolor="#666666"
     borderopacity="1.0"
     inkscape:pageopacity="0.0"
     inkscape:pageshadow="2"
     inkscape:zoom="0.9899495"
     inkscape:cx="286.05776"
     inkscape:cy="600.46192"
     inkscape:document-units="px"
     inkscape:current-layer="layer1"
     showgrid="true"
     inkscape:window-width="1052"
     inkscape:window-height="1394"
     inkscape:window-x="635"
     inkscape:window-y="215"
     inkscape:window-maximized="0" />
  <metadata
     id="metadata7">
    <rdf:RDF>
      <cc:Work
         rdf:about="">
        <dc:format>image/svg+xml</dc:format>
        <dc:type
           rdf:resource="http://purl.org/dc/dcmitype/StillImage" />
        <dc:title />
      </cc:Work>
    </rdf:RDF>
  </metadata>
  <g
     inkscape:label="Layer 1"
     inkscape:groupmode="layer"
     id="layer1">
    <path
       style="fill:none;stroke:#000000;stroke-width:1.33341384;stroke-linecap:butt;stroke-linejoin:round;stroke-miterlimit:4;stroke-opacity:1;stroke-dasharray:none;stroke-dashoffset:0"
       d="m 372.04724,195.57779 c -53.77064,0 -97.38088,43.56857 -97.38088,97.33921 0,26.33213 10.47641,50.18702 27.45999,67.71243 -21.49575,17.16995 -38.54154,43.59382 -37.41892,69.46252 1.2339,28.4333 46.16325,39.12949 53.33655,66.6707 13.62881,52.32652 -1.92581,111.93036 -26.66828,160.00966 -5.7525,11.17821 -26.66827,14.09673 -26.66827,26.66828 0,12.57155 27.70518,14.13956 26.66827,26.66828 -3.15363,38.10458 -96.32973,28.55298 -93.33897,66.67069 0.77741,9.90823 25.07628,3.52379 26.66828,13.33414 2.01374,12.40922 -28.68201,14.25906 -26.66828,26.66828 1.59201,9.81035 17.23962,10.19125 26.66828,13.33414 47.1433,15.71442 147.34223,26.66827 147.34223,26.66827 0,0 100.19894,-10.95385 147.34224,-26.66827 9.42866,-3.14289 25.07627,-3.52379 26.66827,-13.33414 2.01374,-12.40922 -28.68201,-14.25906 -26.66827,-26.66828 1.592,-9.81035 25.89087,-3.42591 26.66827,-13.33414 2.99077,-38.11771 -90.18534,-28.56611 -93.33897,-66.67069 -1.0369,-12.52872 26.66828,-14.09673 26.66828,-26.66828 0,-12.57155 -20.91577,-15.49007 -26.66828,-26.66828 -24.74247,-48.0793 -40.29708,-107.68314 -26.66828,-160.00966 7.1733,-27.54121 52.10266,-38.2374 53.33656,-66.6707 1.12261,-25.8687 -15.96484,-52.29257 -37.4606,-69.46252 16.98359,-17.52541 27.46,-41.3803 27.46,-67.71243 0,-53.77064 -43.56857,-97.33921 -97.33922,-97.33921 z"
       id="path2987"
       inkscape:connector-curvature="0" />
  </g>
</svg>
