<?xml version="1.0" encoding="UTF-8" standalone="no"?>
<!-- Created with Inkscape (http://www.inkscape.org/) -->

<svg
   xmlns:dc="http://purl.org/dc/elements/1.1/"
   xmlns:cc="http://creativecommons.org/ns#"
   xmlns:rdf="http://www.w3.org/1999/02/22-rdf-syntax-ns#"
   xmlns:svg="http://www.w3.org/2000/svg"
   xmlns="http://www.w3.org/2000/svg"
   xmlns:sodipodi="http://sodipodi.sourceforge.net/DTD/sodipodi-0.dtd"
   xmlns:inkscape="http://www.inkscape.org/namespaces/inkscape"
   width="744.09448819"
   height="1052.3622047"
   id="svg2"
   version="1.1"
   inkscape:version="0.48.4 r9939"
   sodipodi:docname="New document 1">
  <defs
     id="defs4" />
  <sodipodi:namedview
     id="base"
     pagecolor="#ffffff"
     bordercolor="#666666"
     borderopacity="1.0"
     inkscape:pageopacity="0.0"
     inkscape:pageshadow="2"
     inkscape:zoom="1.979899"
     inkscape:cx="451.31553"
     inkscape:cy="364.39649"
     inkscape:document-units="px"
     inkscape:current-layer="layer1"
     showgrid="true"
     inkscape:window-width="1052"
     inkscape:window-height="1394"
     inkscape:window-x="635"
     inkscape:window-y="215"
     inkscape:window-maximized="0" />
  <metadata
     id="metadata7">
    <rdf:RDF>
      <cc:Work
         rdf:about="">
        <dc:format>image/svg+xml</dc:format>
        <dc:type
           rdf:resource="http://purl.org/dc/dcmitype/StillImage" />
        <dc:title></dc:title>
      </cc:Work>
    </rdf:RDF>
  </metadata>
  <g
     inkscape:label="Layer 1"
     inkscape:groupmode="layer"
     id="layer1">
    <path
       sodipodi:type="arc"
       style="fill:none;stroke:#000000;stroke-width:0.54782611;stroke-linecap:butt;stroke-linejoin:round;stroke-miterlimit:4;stroke-opacity:1;stroke-dasharray:none;stroke-dashoffset:0"
       id="path2987"
       sodipodi:cx="340"
       sodipodi:cy="432.36218"
       sodipodi:rx="40"
       sodipodi:ry="40"
       d="m 380,432.36218 a 40,40 0 1 1 -80,0 40,40 0 1 1 80,0 z"
       transform="matrix(1.8253968,0,0,1.8253968,-248.58767,-319.72752)" />
    <path
       style="fill:none;stroke:#000000;stroke-width:1px;stroke-linecap:butt;stroke-linejoin:miter;stroke-opacity:1"
       d="m 412.54713,512.36218 c 21.19282,11.34205 41.04214,35.98559 40,60 -0.92537,21.32368 -34.62035,29.34534 -40,50 -10.22099,39.24252 1.44427,83.9427 20,120 4.31412,8.38315 20,10.57191 20,20 0,9.42809 -20.77763,10.60403 -20,20 2.36508,28.57671 72.24294,21.41344 70,50 -0.58302,7.43072 -18.80607,2.64268 -20,10 -1.51021,9.30635 21.51021,10.69365 20,20 -1.19393,7.35732 -12.92893,7.64298 -20,10 -35.35534,11.78511 -110.49989,20 -110.49989,20 0,0 -75.14454,-8.21489 -110.49988,-20 -7.07107,-2.35702 -18.80607,-2.64268 -20,-10 -1.51021,-9.30635 21.51021,-10.69365 20,-20 -1.19393,-7.35732 -19.41698,-2.56928 -20,-10 -2.24294,-28.58656 67.63492,-21.42329 70,-50 0.77763,-9.39597 -20,-10.57191 -20,-20 0,-9.42809 15.68588,-11.61685 20,-20 18.55573,-36.0573 30.22099,-80.75748 20,-120 -5.37965,-20.65466 -39.07463,-28.67632 -40,-50 -1.04214,-24.01441 18.80718,-48.65795 40,-60 z"
       id="path2989-7"
       inkscape:connector-curvature="0"
       sodipodi:nodetypes="cssssssssscssssssssscc" />
  </g>
</svg>
