<?xml version="1.0" encoding="UTF-8" standalone="no"?>
<!-- Created with Inkscape (http://www.inkscape.org/) -->

<svg
   xmlns:dc="http://purl.org/dc/elements/1.1/"
   xmlns:cc="http://creativecommons.org/ns#"
   xmlns:rdf="http://www.w3.org/1999/02/22-rdf-syntax-ns#"
   xmlns:svg="http://www.w3.org/2000/svg"
   xmlns="http://www.w3.org/2000/svg"
   xmlns:sodipodi="http://sodipodi.sourceforge.net/DTD/sodipodi-0.dtd"
   xmlns:inkscape="http://www.inkscape.org/namespaces/inkscape"
   width="744.09448819"
   height="1052.3622047"
   id="svg2985"
   version="1.1"
   inkscape:version="0.48.4 r9939"
   sodipodi:docname="qredo_split.svg">
  <defs
     id="defs2987" />
  <sodipodi:namedview
     id="base"
     pagecolor="#ffffff"
     bordercolor="#666666"
     borderopacity="1.0"
     inkscape:pageopacity="0.0"
     inkscape:pageshadow="2"
     inkscape:zoom="2.8"
     inkscape:cx="391.29331"
     inkscape:cy="400.07382"
     inkscape:document-units="px"
     inkscape:current-layer="layer1"
     showgrid="true"
     inkscape:window-width="1481"
     inkscape:window-height="1387"
     inkscape:window-x="98"
     inkscape:window-y="95"
     inkscape:window-maximized="0">
    <inkscape:grid
       type="xygrid"
       id="grid2994"
       empspacing="5"
       visible="true"
       enabled="true"
       snapvisiblegridlinesonly="true"
       spacingx="10px"
       spacingy="10px" />
  </sodipodi:namedview>
  <metadata
     id="metadata2990">
    <rdf:RDF>
      <cc:Work
         rdf:about="">
        <dc:format>image/svg+xml</dc:format>
        <dc:type
           rdf:resource="http://purl.org/dc/dcmitype/StillImage" />
        <dc:title />
      </cc:Work>
    </rdf:RDF>
  </metadata>
  <g
     inkscape:label="Layer 1"
     inkscape:groupmode="layer"
     id="layer1">
    <path
       sodipodi:type="arc"
       style="fill:none;stroke:#000000;stroke-width:1;stroke-linecap:butt;stroke-linejoin:round;stroke-miterlimit:4;stroke-opacity:1;stroke-dasharray:none;stroke-dashoffset:0"
       id="path3057"
       sodipodi:cx="280"
       sodipodi:cy="517.36218"
       sodipodi:rx="5"
       sodipodi:ry="5"
       d="m 285,517.36218 a 5,5 0 1 1 -10,0 5,5 0 1 1 10,0 z" />
    <path
       transform="translate(20,0)"
       sodipodi:type="arc"
       style="fill:none;stroke:#000000;stroke-width:1;stroke-linecap:butt;stroke-linejoin:round;stroke-miterlimit:4;stroke-opacity:1;stroke-dasharray:none;stroke-dashoffset:0"
       id="path3057-2"
       sodipodi:cx="280"
       sodipodi:cy="517.36218"
       sodipodi:rx="5"
       sodipodi:ry="5"
       d="m 285,517.36218 a 5,5 0 1 1 -10,0 5,5 0 1 1 10,0 z" />
    <path
       transform="translate(40,0)"
       sodipodi:type="arc"
       style="fill:none;stroke:#000000;stroke-width:1;stroke-linecap:butt;stroke-linejoin:round;stroke-miterlimit:4;stroke-opacity:1;stroke-dasharray:none;stroke-dashoffset:0"
       id="path3057-4"
       sodipodi:cx="280"
       sodipodi:cy="517.36218"
       sodipodi:rx="5"
       sodipodi:ry="5"
       d="m 285,517.36218 a 5,5 0 1 1 -10,0 5,5 0 1 1 10,0 z" />
    <path
       transform="translate(60,0)"
       sodipodi:type="arc"
       style="fill:none;stroke:#000000;stroke-width:1;stroke-linecap:butt;stroke-linejoin:round;stroke-miterlimit:4;stroke-opacity:1;stroke-dasharray:none;stroke-dashoffset:0"
       id="path3057-5"
       sodipodi:cx="280"
       sodipodi:cy="517.36218"
       sodipodi:rx="5"
       sodipodi:ry="5"
       d="m 285,517.36218 a 5,5 0 1 1 -10,0 5,5 0 1 1 10,0 z" />
    <path
       transform="translate(80,0)"
       sodipodi:type="arc"
       style="fill:none;stroke:#000000;stroke-width:1;stroke-linecap:butt;stroke-linejoin:round;stroke-miterlimit:4;stroke-opacity:1;stroke-dasharray:none;stroke-dashoffset:0"
       id="path3057-51"
       sodipodi:cx="280"
       sodipodi:cy="517.36218"
       sodipodi:rx="5"
       sodipodi:ry="5"
       d="m 285,517.36218 a 5,5 0 1 1 -10,0 5,5 0 1 1 10,0 z" />
    <path
       style="fill:none;stroke:#000000;stroke-width:1px;stroke-linecap:butt;stroke-linejoin:miter;stroke-opacity:1"
       d="m 370,537.36218 c -0.30976,-7.44712 -10,-20 -10,-20 l -10,20 -10,-20 -10,20 -10,-20 -10,20 -10,-20 -10,20 -10,-20 c 0,0 -9.69024,12.55288 -10,20 l 10,65 80,0 z"
       id="path3098"
       inkscape:connector-curvature="0"
       sodipodi:nodetypes="cccccccccccccc" />
    <path
       style="fill:none;stroke:#000000;stroke-width:1px;stroke-linecap:butt;stroke-linejoin:miter;stroke-opacity:1"
       d="m 290,592.36218 c 0,0 8.32764,39.79321 10,60 1.92455,23.25383 1.92455,46.74617 0,70 -1.67236,20.20679 -10.11838,35.01415 -20,50 -10.38016,15.74192 -43.99185,21.5712 -40,40 6.02921,27.83451 51.51999,30 80,30 28.48001,0 73.97079,-2.16549 80,-30 3.99185,-18.4288 -29.61984,-24.25808 -40,-40 -9.88162,-14.98585 -18.32764,-29.79321 -20,-50 -1.92455,-23.25383 -1.92455,-46.74617 0,-70 1.67236,-20.20679 10,-60 10,-60 z"
       id="path2996"
       inkscape:connector-curvature="0"
       sodipodi:nodetypes="cssaaaaasscc" />
  </g>
</svg>
