<?xml version="1.0" encoding="UTF-8" standalone="no"?>
<!-- Created with Inkscape (http://www.inkscape.org/) -->

<svg
   xmlns:dc="http://purl.org/dc/elements/1.1/"
   xmlns:cc="http://creativecommons.org/ns#"
   xmlns:rdf="http://www.w3.org/1999/02/22-rdf-syntax-ns#"
   xmlns:svg="http://www.w3.org/2000/svg"
   xmlns="http://www.w3.org/2000/svg"
   xmlns:sodipodi="http://sodipodi.sourceforge.net/DTD/sodipodi-0.dtd"
   xmlns:inkscape="http://www.inkscape.org/namespaces/inkscape"
   width="161.64853"
   height="323.49799"
   id="svg2985"
   version="1.1"
   inkscape:version="0.48.4 r9939"
   sodipodi:docname="qredo.svg">
  <defs
     id="defs2987" />
  <sodipodi:namedview
     id="base"
     pagecolor="#ffffff"
     bordercolor="#666666"
     borderopacity="1.0"
     inkscape:pageopacity="0.0"
     inkscape:pageshadow="2"
     inkscape:zoom="2.8"
     inkscape:cx="152.11757"
     inkscape:cy="183.07702"
     inkscape:document-units="px"
     inkscape:current-layer="layer1"
     showgrid="true"
     inkscape:window-width="1481"
     inkscape:window-height="1387"
     inkscape:window-x="98"
     inkscape:window-y="95"
     inkscape:window-maximized="0"
     fit-margin-top="0"
     fit-margin-left="0"
     fit-margin-right="0"
     fit-margin-bottom="0">
    <inkscape:grid
       type="xygrid"
       id="grid2994"
       empspacing="5"
       visible="true"
       enabled="true"
       snapvisiblegridlinesonly="true"
       spacingx="10px"
       spacingy="10px"
       originx="-239.17574px"
       originy="-216.9968px" />
  </sodipodi:namedview>
  <metadata
     id="metadata2990">
    <rdf:RDF>
      <cc:Work
         rdf:about="">
        <dc:format>image/svg+xml</dc:format>
        <dc:type
           rdf:resource="http://purl.org/dc/dcmitype/StillImage" />
        <dc:title></dc:title>
      </cc:Work>
    </rdf:RDF>
  </metadata>
  <g
     inkscape:label="Layer 1"
     inkscape:groupmode="layer"
     id="layer1"
     transform="translate(-239.17574,-511.8674)">
    <path
       style="fill:none;stroke:#000000;stroke-width:1;stroke-linecap:butt;stroke-linejoin:round;stroke-miterlimit:4;stroke-opacity:1;stroke-dasharray:none;stroke-dashoffset:0"
       d="m 279.5,512.375 c -2.52128,0.25605 -4.5,2.41117 -4.5,5 0,1.67837 0.85632,3.12439 2.125,4.03125 -2.88537,4.31692 -6.92606,16.17306 -7.125,20.95593 0,30 10,40 20,60 20,20 20,140 -10,170.01282 -10,19.98718 -43.99185,21.5712 -40,40 20,29.98718 140,29.98718 160,0 3.99185,-18.4288 -30,-20.01282 -40,-40 -30,-30.01282 -30,-150.01282 -10,-170.01282 10,-20 20,-30 20,-60 -0.19894,-4.78287 -4.23963,-16.63901 -7.125,-20.95593 1.26868,-0.90686 2.125,-2.35288 2.125,-4.03125 0,-2.76142 -2.23858,-5 -5,-5 -2.76142,0 -5,2.23858 -5,5 0,1.95601 1.14466,3.61592 2.78125,4.4375 0,0 -1.98145,15.5625 -7.78125,15.5625 -5.7998,0 -7.78125,-15.5625 -7.78125,-15.5625 1.63659,-0.82158 2.78125,-2.48149 2.78125,-4.4375 0,-2.76142 -2.23858,-5 -5,-5 -2.76142,0 -5,2.23858 -5,5 0,1.95601 1.14466,3.61592 2.78125,4.4375 0,0 -1.98145,15.5625 -7.78125,15.5625 -5.7998,0 -7.78125,-15.5625 -7.78125,-15.5625 1.63659,-0.82158 2.78125,-2.48149 2.78125,-4.4375 0,-2.76142 -2.23858,-5 -5,-5 -2.76142,0 -5,2.23858 -5,5 0,1.95601 1.14466,3.61592 2.78125,4.4375 0,0 -1.98145,15.5625 -7.78125,15.5625 -5.7998,0 -7.78125,-15.5625 -7.78125,-15.5625 1.63659,-0.82158 2.78125,-2.48149 2.78125,-4.4375 0,-2.76142 -2.23858,-5 -5,-5 -2.76142,0 -5,2.23858 -5,5 0,1.95601 1.14466,3.61592 2.78125,4.4375 0,0 -1.98145,15.5625 -7.78125,15.5625 -5.7998,0 -7.78125,-15.5625 -7.78125,-15.5625 1.63659,-0.82158 2.78125,-2.48149 2.78125,-4.4375 0,-2.76142 -2.23858,-5 -5,-5 -0.17259,0 -0.33191,-0.0171 -0.5,0 z"
       id="path3057"
       inkscape:connector-curvature="0"
       sodipodi:nodetypes="ssccccccccccssscscssscscssscscssscscsss" />
  </g>
</svg>
