<?xml version="1.0" encoding="UTF-8" standalone="no"?>
<!-- Created with Inkscape (http://www.inkscape.org/) -->

<svg
   xmlns:dc="http://purl.org/dc/elements/1.1/"
   xmlns:cc="http://creativecommons.org/ns#"
   xmlns:rdf="http://www.w3.org/1999/02/22-rdf-syntax-ns#"
   xmlns:svg="http://www.w3.org/2000/svg"
   xmlns="http://www.w3.org/2000/svg"
   xmlns:sodipodi="http://sodipodi.sourceforge.net/DTD/sodipodi-0.dtd"
   xmlns:inkscape="http://www.inkscape.org/namespaces/inkscape"
   width="241.11697"
   height="401"
   id="svg3809"
   version="1.1"
   inkscape:version="0.48.4 r9939"
   sodipodi:docname="queen2.svg">
  <defs
     id="defs3811" />
  <sodipodi:namedview
     id="base"
     pagecolor="#ffffff"
     bordercolor="#666666"
     borderopacity="1.0"
     inkscape:pageopacity="0.0"
     inkscape:pageshadow="2"
     inkscape:zoom="3.959798"
     inkscape:cx="139.89083"
     inkscape:cy="307.20119"
     inkscape:document-units="px"
     inkscape:current-layer="layer1"
     showgrid="true"
     inkscape:window-width="1550"
     inkscape:window-height="1502"
     inkscape:window-x="638"
     inkscape:window-y="122"
     inkscape:window-maximized="0"
     fit-margin-top="0"
     fit-margin-left="0"
     fit-margin-right="0"
     fit-margin-bottom="0">
    <inkscape:grid
       type="xygrid"
       id="grid3817"
       empspacing="5"
       visible="true"
       enabled="true"
       snapvisiblegridlinesonly="true"
       spacingx="10px"
       spacingy="10px"
       originx="-189.37901px"
       originy="-399.48719px" />
  </sodipodi:namedview>
  <metadata
     id="metadata3814">
    <rdf:RDF>
      <cc:Work
         rdf:about="">
        <dc:format>image/svg+xml</dc:format>
        <dc:type
           rdf:resource="http://purl.org/dc/dcmitype/StillImage" />
        <dc:title></dc:title>
      </cc:Work>
    </rdf:RDF>
  </metadata>
  <g
     inkscape:label="Layer 1"
     inkscape:groupmode="layer"
     id="layer1"
     transform="translate(-189.37901,-251.875)">
    <g
       id="g4409"
       style="fill:#000000;fill-opacity:1;stroke:#000000;stroke-opacity:1"
       transform="translate(19.950513,0)">
      <path
         style="opacity:0.98557691;fill:none;stroke:#000000;stroke-opacity:1"
         d="m 249.9375,252.375 c -5.52285,0 -10,4.47716 -10,10 0,5.52285 4.47715,10 10,10 5.52285,0 10,-4.47715 10,-10 0,-5.52284 -4.47715,-10 -10,-10 z m 0,20 c -10.54093,0 -8.31153,19.59518 -10,30 -1.06788,6.58058 -2.55122,13.8408 0,20 5.41196,13.06563 21.73095,18.5273 30,30 4.35817,6.04664 9.2245,12.58689 10,20 8.24366,78.80241 -20.61102,161.25201 -60,230 -7.03051,12.27078 -31.39353,15.92669 -30,30 1.18427,11.96001 30,20 30,20 l 180,0 c 0,0 28.81573,-8.03999 30,-20 1.39353,-14.07331 -22.96949,-17.72922 -30,-30 -39.38898,-68.74799 -68.24366,-151.19759 -60,-230 0.7755,-7.41311 5.64183,-13.95336 10,-20 8.26905,-11.4727 24.58804,-16.93437 30,-30 2.55122,-6.1592 1.06788,-13.41942 0,-20 -1.68847,-10.40482 0.54093,-30 -10,-30 -10.54093,0 -3.61268,16.0684 -9.9375,19.98718 -2.83353,1.75562 -7.16209,1.74853 -10,0 -6.35047,-3.91273 0.47843,-19.98718 -10.0625,-19.98718 -10.54093,0 -3.61268,16.0684 -9.9375,19.98718 -2.83353,1.75562 -7.16209,1.74853 -10,0 -6.35047,-3.91273 0.47843,-19.98718 -10.0625,-19.98718 -10.54093,0 -3.61268,16.0684 -9.9375,19.98718 -2.83353,1.75562 -7.16209,1.74853 -10,0 -6.35047,-3.91273 0.47843,-19.98718 -10.0625,-19.98718 -10.54093,0 -3.61268,16.0684 -9.9375,19.98718 -2.83353,1.75562 -7.16209,1.74853 -10,0 -6.35047,-3.91273 0.47843,-19.98718 -10.0625,-19.98718 z m 30,0 c 5.52285,0 10,-4.47715 10,-10 0,-5.52284 -4.47715,-10 -10,-10 -5.52285,0 -10,4.47716 -10,10 0,5.52285 4.47715,10 10,10 z m 30,0 c 5.52285,0 10,-4.47715 10,-10 0,-5.52284 -4.47715,-10 -10,-10 -5.52285,0 -10,4.47716 -10,10 0,5.52285 4.47715,10 10,10 z m 30,0 c 5.52285,0 10,-4.47715 10,-10 0,-5.52284 -4.47715,-10 -10,-10 -5.52285,0 -10,4.47716 -10,10 0,5.52285 4.47715,10 10,10 z m 30,0 c 5.52285,0 10,-4.47715 10,-10 0,-5.52284 -4.47715,-10 -10,-10 -5.52285,0 -10,4.47716 -10,10 0,5.52285 4.47715,10 10,10 z"
         transform="translate(-19.950513,0)"
         id="use4401"
         inkscape:connector-curvature="0"
         sodipodi:nodetypes="sszsszaaaaaaccaaaaaacsszsszsszsszzssszzssszzssszcsssc" />
    </g>
  </g>
</svg>
