<?xml version="1.0" encoding="UTF-8" standalone="no"?>
<!-- Created with Inkscape (http://www.inkscape.org/) -->

<svg
   xmlns:dc="http://purl.org/dc/elements/1.1/"
   xmlns:cc="http://creativecommons.org/ns#"
   xmlns:rdf="http://www.w3.org/1999/02/22-rdf-syntax-ns#"
   xmlns:svg="http://www.w3.org/2000/svg"
   xmlns="http://www.w3.org/2000/svg"
   xmlns:sodipodi="http://sodipodi.sourceforge.net/DTD/sodipodi-0.dtd"
   xmlns:inkscape="http://www.inkscape.org/namespaces/inkscape"
   width="744.09448819"
   height="1052.3622047"
   id="svg2"
   version="1.1"
   inkscape:version="0.48.4 r9939"
   sodipodi:docname="rooktop.svg">
  <defs
     id="defs4" />
  <sodipodi:namedview
     id="base"
     pagecolor="#ffffff"
     bordercolor="#666666"
     borderopacity="1.0"
     inkscape:pageopacity="0.0"
     inkscape:pageshadow="2"
     inkscape:zoom="3.959798"
     inkscape:cx="241.81196"
     inkscape:cy="654.68761"
     inkscape:document-units="px"
     inkscape:current-layer="layer1"
     showgrid="true"
     inkscape:window-width="976"
     inkscape:window-height="1231"
     inkscape:window-x="917"
     inkscape:window-y="423"
     inkscape:window-maximized="0" />
  <metadata
     id="metadata7">
    <rdf:RDF>
      <cc:Work
         rdf:about="">
        <dc:format>image/svg+xml</dc:format>
        <dc:type
           rdf:resource="http://purl.org/dc/dcmitype/StillImage" />
        <dc:title></dc:title>
      </cc:Work>
    </rdf:RDF>
  </metadata>
  <g
     inkscape:label="Layer 1"
     inkscape:groupmode="layer"
     id="layer1">
    <path
       style="fill:none;stroke:#000000;stroke-width:1px;stroke-linecap:butt;stroke-linejoin:miter;stroke-opacity:1"
       d="m 219.355,319.68579 0,-10 -10,0 0,40 90,0 0,-40 -10,0 0,10 -10,0 0,-10 -10,0 0,10 -10,0 0,-10 -10,0 0,10 -10,0 0,-10 -10,0 0,10 z"
       id="path2989"
       inkscape:connector-curvature="0"
       sodipodi:nodetypes="ccccccccccccccccccccc" />
    <path
       style="fill:none;stroke:#000000;stroke-width:1px;stroke-linecap:butt;stroke-linejoin:miter;stroke-opacity:1"
       d="m 214.33224,343.09462 c 0,0 9.05337,19.50167 10,30 2.11674,23.47499 -1.58773,47.98207 -10,70 -4.28943,11.22699 -58.72719,19.98977 -20,30 45.97706,11.88418 73.5073,11.49436 120,0 38.83088,-9.60013 -15.71057,-18.77301 -20,-30 -8.41227,-22.01793 -12.11674,-46.52501 -10,-70 0.94663,-10.49833 10,-30 10,-30 z"
       id="path2993"
       inkscape:connector-curvature="0"
       sodipodi:nodetypes="caassaacc" />
  </g>
</svg>
